# xmcd CD database file
# Copyright (C) 1993-1998 Ti Kan
# 
# Track frame offsets:
#     150
#     20325
#     37352
#     58605
#     75062
#     92405
#     114097
#     130347
#     153275
#     171385
# 
# Disc length: 2555 seconds
# 
# Revision: 1
# Processed by: cddbd v1.4b41PL1 Copyright (c) Steve Scherf et al.
# Submitted via: DiscPlay 4.0.4
# 
DISCID=6f09f90a
DTITLE=Gene Loves Jezebel - Immigrant
DYEAR=1900
DGENRE=
TTITLE0=Always A Flame
TTITLE1=Shame
TTITLE2=Stephen
TTITLE3=Bruises
TTITLE4=The Immigrant
TTITLE5=Cow
TTITLE6=Worth Waiting For
TTITLE7=The Rhino Plasty
TTITLE8=Deep South Wale
TTITLE9=Coal Porter
EXTD=
EXTT0=
EXTT1=
EXTT2=
EXTT3=
EXTT4=
EXTT5=
EXTT6=
EXTT7=
EXTT8=
EXTT9=
PLAYORDER=
